<svg xmlns="http://www.w3.org/2000/svg" viewBox="0 0 64 64">
  <defs>
    <radialGradient id="bg" cx="50%" cy="50%" r="50%"><stop offset="0%" stop-color="#0d1f2d"/><stop offset="100%" stop-color="#060a10"/></radialGradient>
    <linearGradient id="sky" x1="0" y1="0" x2="0" y2="1"><stop offset="0%" stop-color="#00e5ff" stop-opacity=".08"/><stop offset="100%" stop-color="#00e5ff" stop-opacity="0"/></linearGradient>
    <filter id="g"><feGaussianBlur stdDeviation="1.8" result="b"/><feMerge><feMergeNode in="b"/><feMergeNode in="SourceGraphic"/></feMerge></filter>
  </defs>
  <rect width="64" height="64" rx="10" fill="url(#bg)"/>
  <path d="M7 40 A27 27 0 0 1 57 40 L57 44 L7 44 Z" fill="url(#sky)"/>
  <path d="M7 40 A27 27 0 0 1 57 40" fill="none" stroke="#00e5ff" stroke-width="2.8" stroke-linecap="round" filter="url(#g)"/>
  <line x1="3" y1="46" x2="61" y2="46" stroke="#00e5ff" stroke-width=".9" opacity=".35"/>
  <path d="M3 46 C10 40 18 42 25 46 C31 41 39 40 46 46 C52 41 57 43 61 46" fill="none" stroke="#00e5ff" stroke-width="1.3" opacity=".6"/>
  <line x1="15" y1="46" x2="13" y2="52" stroke="#00e5ff" stroke-width="1.1" stroke-linecap="round" opacity=".5"/>
  <line x1="20" y1="46" x2="20" y2="53" stroke="#00e5ff" stroke-width="1.1" stroke-linecap="round" opacity=".5"/>
  <line x1="25" y1="46" x2="27" y2="52" stroke="#00e5ff" stroke-width="1.1" stroke-linecap="round" opacity=".5"/>
  <line x1="38" y1="46" x2="36" y2="52" stroke="#00e5ff" stroke-width="1.1" stroke-linecap="round" opacity=".5"/>
  <line x1="44" y1="46" x2="44" y2="53" stroke="#00e5ff" stroke-width="1.1" stroke-linecap="round" opacity=".5"/>
  <line x1="49" y1="46" x2="51" y2="52" stroke="#00e5ff" stroke-width="1.1" stroke-linecap="round" opacity=".5"/>
  <circle cx="32" cy="22" r="4" fill="#00e5ff" opacity=".18" filter="url(#g)"/>
  <circle cx="32" cy="22" r="2" fill="#00e5ff" opacity=".6" filter="url(#g)"/>
</svg>