<svg xmlns="http://www.w3.org/2000/svg" viewBox="0 0 64 64">
  <defs>
    <radialGradient id="bg" cx="50%" cy="50%" r="50%"><stop offset="0%" stop-color="#0d1f2d"/><stop offset="100%" stop-color="#060a10"/></radialGradient>
    <filter id="g"><feGaussianBlur stdDeviation="1.4" result="b"/><feMerge><feMergeNode in="b"/><feMergeNode in="SourceGraphic"/></feMerge></filter>
  </defs>
  <rect width="64" height="64" rx="10" fill="url(#bg)"/>
  <line x1="32" y1="56" x2="32" y2="38" stroke="#00e5ff" stroke-width="2.2" stroke-linecap="round"/>
  <line x1="32" y1="42" x2="19" y2="28" stroke="#00e5ff" stroke-width="1.6" stroke-linecap="round"/>
  <line x1="32" y1="42" x2="45" y2="28" stroke="#00e5ff" stroke-width="1.6" stroke-linecap="round"/>
  <line x1="32" y1="38" x2="32" y2="22" stroke="#00e5ff" stroke-width="1.6" stroke-linecap="round"/>
  <line x1="19" y1="28" x2="12" y2="19" stroke="#00e5ff" stroke-width="1" stroke-linecap="round" opacity=".8"/>
  <line x1="19" y1="28" x2="24" y2="18" stroke="#00e5ff" stroke-width="1" stroke-linecap="round" opacity=".8"/>
  <line x1="45" y1="28" x2="52" y2="19" stroke="#00e5ff" stroke-width="1" stroke-linecap="round" opacity=".8"/>
  <line x1="45" y1="28" x2="40" y2="18" stroke="#00e5ff" stroke-width="1" stroke-linecap="round" opacity=".8"/>
  <line x1="32" y1="22" x2="26" y2="13" stroke="#00e5ff" stroke-width="1" stroke-linecap="round" opacity=".8"/>
  <line x1="32" y1="22" x2="38" y2="13" stroke="#00e5ff" stroke-width="1" stroke-linecap="round" opacity=".8"/>
  <line x1="12" y1="19" x2="24" y2="18" stroke="#00e5ff" stroke-width=".5" stroke-dasharray="2,2" opacity=".35"/>
  <line x1="40" y1="18" x2="52" y2="19" stroke="#00e5ff" stroke-width=".5" stroke-dasharray="2,2" opacity=".35"/>
  <line x1="26" y1="13" x2="38" y2="13" stroke="#00e5ff" stroke-width=".5" stroke-dasharray="2,2" opacity=".35"/>
  <circle cx="12" cy="19" r="2.5" fill="#00e5ff" filter="url(#g)"/>
  <circle cx="24" cy="18" r="2.5" fill="#00e5ff" filter="url(#g)"/>
  <circle cx="52" cy="19" r="2.5" fill="#00e5ff" filter="url(#g)"/>
  <circle cx="40" cy="18" r="2.5" fill="#00e5ff" filter="url(#g)"/>
  <circle cx="26" cy="13" r="2.8" fill="#fff" filter="url(#g)" opacity=".9"/>
  <circle cx="38" cy="13" r="2.8" fill="#fff" filter="url(#g)" opacity=".9"/>
  <circle cx="19" cy="28" r="2" fill="#00b8d4"/>
  <circle cx="45" cy="28" r="2" fill="#00b8d4"/>
  <circle cx="32" cy="22" r="2" fill="#00b8d4"/>
</svg>